<svg width="24" height="24" viewBox="0 0 24 24" fill="none" xmlns="http://www.w3.org/2000/svg">
    <path d="M21.996 9.33562H21.96C21.6739 9.33391 21.3947 9.24752 21.1577 9.08735C20.9207 8.92718 20.7364 8.70041 20.628 8.43563L20.6271 8.43106L20.6245 8.4272L20.6206 8.42469L20.616 8.42393C20.5093 8.15998 20.4819 7.8706 20.5374 7.59133C20.5928 7.31206 20.7286 7.05506 20.928 6.85187L20.964 6.81587C21.3386 6.43984 21.549 5.93065 21.549 5.39982C21.549 4.86898 21.3386 4.35979 20.964 3.98376L20.016 3.04799C19.64 2.67328 19.1309 2.46287 18.6 2.46287C18.0692 2.46287 17.56 2.67328 17.184 3.04799L17.172 3.07201C16.9642 3.27214 16.7024 3.40715 16.4188 3.46046C16.1353 3.51377 15.8423 3.48303 15.576 3.37205C15.3075 3.26766 15.0768 3.08464 14.914 2.84695C14.7513 2.60925 14.6641 2.32796 14.6639 2.03989V2.00389C14.6648 1.7415 14.614 1.48151 14.5143 1.23877C14.4147 0.996034 14.2682 0.775311 14.0832 0.589216C13.8982 0.40312 13.6784 0.255299 13.4362 0.154198C13.1941 0.0530981 12.9344 0.000700589 12.672 0H11.328C11.0656 0.000700589 10.8059 0.0530981 10.5638 0.154198C10.3216 0.255299 10.1018 0.40312 9.9168 0.589216C9.73182 0.775311 9.58531 0.996034 9.48567 1.23877C9.38602 1.48151 9.33518 1.7415 9.33605 2.00389V2.03989C9.33588 2.32635 9.25011 2.60622 9.08975 2.84358C8.92939 3.08095 8.70175 3.26498 8.43605 3.37205C8.25485 3.45286 8.05838 3.49372 7.85999 3.49186C7.47784 3.49236 7.11107 3.34139 6.84001 3.07201L6.81599 3.04799C6.44 2.67328 5.93081 2.46287 5.39998 2.46287C4.86915 2.46287 4.35996 2.67328 3.98397 3.04799L3.03604 3.98376C2.66136 4.35979 2.45097 4.86898 2.45097 5.39982C2.45097 5.93065 2.66136 6.43984 3.03604 6.81587L3.07199 6.85187C3.27316 7.05648 3.40958 7.31584 3.46421 7.59753C3.51884 7.87922 3.48926 8.17077 3.37917 8.43575C3.26907 8.70073 3.08334 8.9274 2.84517 9.08744C2.60701 9.24749 2.32696 9.33381 2.04002 9.33562H2.00397C1.47273 9.33659 0.963532 9.54807 0.587916 9.92373C0.212301 10.2994 0.000892181 10.8086 0 11.3399V12.672C0.000966559 13.2031 0.21241 13.7123 0.588019 14.0879C0.963628 14.4635 1.47278 14.6749 2.00397 14.6758H2.04002C2.32701 14.6735 2.60795 14.7583 2.84575 14.919C3.08355 15.0797 3.26703 15.3087 3.37197 15.5758C3.58797 16.1158 3.48002 16.7638 3.07199 17.1719L3.04797 17.1836C2.67322 17.5621 2.463 18.0731 2.463 18.6057C2.463 19.1383 2.67322 19.6493 3.04797 20.0278L3.98397 20.9638C4.36002 21.3383 4.86919 21.5487 5.39998 21.5487C5.93077 21.5487 6.43994 21.3383 6.81599 20.9638L6.84001 20.9397C7.04039 20.7359 7.29753 20.5971 7.57792 20.5414C7.85832 20.4857 8.14898 20.5158 8.41203 20.6277C8.6826 20.734 8.91518 20.9189 9.07985 21.1585C9.24452 21.398 9.33374 21.6814 9.33605 21.9721V22.0079C9.33541 22.2696 9.38649 22.529 9.48636 22.7709C9.58623 23.0129 9.73293 23.2328 9.91802 23.4179C10.1031 23.603 10.323 23.7497 10.5649 23.8496C10.8069 23.9495 11.0662 24.0006 11.328 24H12.672C12.9338 24.0006 13.1931 23.9495 13.4351 23.8496C13.677 23.7497 13.8969 23.603 14.082 23.4179C14.2671 23.2328 14.4138 23.0129 14.5136 22.7709C14.6135 22.529 14.6646 22.2696 14.6639 22.0079V21.9721C14.6663 21.6814 14.7555 21.398 14.9202 21.1585C15.0848 20.9189 15.3174 20.734 15.588 20.6277C15.851 20.5158 16.1417 20.4857 16.4221 20.5414C16.7025 20.5971 16.9596 20.7359 17.16 20.9397L17.184 20.9638C17.5601 21.3383 18.0692 21.5487 18.6 21.5487C19.1308 21.5487 19.64 21.3383 20.016 20.9638L20.952 20.0278C21.3268 19.6493 21.537 19.1383 21.537 18.6057C21.537 18.0731 21.3268 17.5621 20.952 17.1836L20.928 17.1719C20.52 16.7638 20.412 16.1158 20.628 15.5758C20.733 15.3087 20.9165 15.0797 21.1543 14.919C21.3921 14.7583 21.673 14.6735 21.96 14.6758H21.996C22.5272 14.6749 23.0364 14.4635 23.412 14.0879C23.7876 13.7123 23.999 13.2031 24 12.672V11.3399C23.9991 10.8086 23.7877 10.2994 23.4121 9.92373C23.0365 9.54807 22.5273 9.33659 21.996 9.33562ZM12 16.1999C11.1693 16.1999 10.3573 15.9535 9.66659 15.492C8.9759 15.0305 8.43757 14.3746 8.11968 13.6071C7.80179 12.8397 7.71862 11.9952 7.88068 11.1805C8.04274 10.3658 8.44275 9.61742 9.03013 9.03005C9.61752 8.44267 10.3659 8.04266 11.1806 7.8806C11.9953 7.71854 12.8398 7.80172 13.6073 8.11961C14.3747 8.43749 15.0307 8.97581 15.4922 9.6665C15.9537 10.3572 16.2 11.1692 16.2 11.9999C16.1988 13.1134 15.7559 14.181 14.9685 14.9684C14.1811 15.7557 13.1135 16.1986 12 16.1999Z" fill="#C8CDDF"/>
</svg>
    